<svg width="27" height="21" viewBox="0 0 27 21" fill="none" xmlns="http://www.w3.org/2000/svg">
<path d="M16.4133 9.22152C16.323 8.89873 16.0713 7.92443 16.0713 7.92443L17.7844 5.01929C19.0845 2.81452 21.4533 1.46175 24.0129 1.46175H26.6527C26.6527 1.46175 19.6975 7.41181 17.3453 9.50996C17.106 9.72348 16.5477 9.70157 16.4133 9.22152ZM22.0456 10.2601L21.5706 10.0001C21.7957 9.79633 21.7527 9.43149 21.4865 9.28578L20.3982 8.72845C20.1953 8.6245 19.9753 8.57357 19.7567 8.57357C19.4253 8.57357 19.0972 8.69054 18.8357 8.9165L17.6891 9.90768C17.4841 10.0848 17.2277 10.1757 16.9689 10.1757C16.7832 10.1757 16.5966 10.1289 16.4275 10.0332C16.169 9.88725 15.9803 9.64263 15.9045 9.35567L15.4269 7.54418C14.2541 3.09793 10.2334 0 5.63526 0H0C1.64625 4.66451 4.72019 8.6251 8.70831 11.3748L8.70446 11.3739L8.72963 11.3896C9.28401 11.771 12.9079 14.0042 12.9079 14.0042L7.09316 18.9634H14.1452L14.6835 17.1427L17.9864 18.2879L18.6512 19.046L18.2751 19.3712C17.8457 19.7422 17.9364 20.4316 18.4469 20.6792L18.4839 20.6973C18.3788 20.4227 18.457 20.1115 18.6794 19.9193L20.1213 18.6729C20.3179 18.5029 20.5966 18.4647 20.8317 18.576L21.6689 18.972L21.2747 18.3394C20.9428 17.8063 20.2134 17.6959 19.7384 18.1063L19.1988 18.5725L18.5722 17.8614L18.2479 15.6812L20.2477 11.4079C20.3931 11.1423 20.6674 10.9919 20.9502 10.9919C21.0805 10.9919 21.5688 11.2193 21.5688 11.2193C21.756 11.322 21.9091 11.4772 22.0095 11.6656L22.0743 11.787L22.3465 11.2895C22.5481 10.9223 22.4131 10.4612 22.0456 10.2601Z" fill="url(#paint0_linear_6148_36133)"/>
<defs>
<linearGradient id="paint0_linear_6148_36133" x1="-4.56903" y1="3.9177" x2="9.44262" y2="28.4051" gradientUnits="userSpaceOnUse">
<stop stop-color="#3E7BFA"/>
<stop offset="1" stop-color="#6600CC"/>
</linearGradient>
</defs>
</svg>
